<?xml version="1.0" encoding="utf-8"?>
<!-- Svg Vector Icons : http://www.onlinewebfonts.com/icon -->
<!DOCTYPE svg PUBLIC "-//W3C//DTD SVG 1.1//EN" "http://www.w3.org/Graphics/SVG/1.1/DTD/svg11.dtd">
<svg version="1.1" xmlns="http://www.w3.org/2000/svg" xmlns:xlink="http://www.w3.org/1999/xlink" x="0px" y="0px" viewBox="0 0 1000 1000" enable-background="new 0 0 1000 1000" xml:space="preserve">
<metadata> Svg Vector Icons : http://www.onlinewebfonts.com/icon </metadata>
<g><g transform="translate(0.000000,511.000000) scale(0.100000,-0.100000)"><path d="M4399.5,4994c-1153.7-153.4-2188.6-676.2-2970.7-1503.7C860.5,2889.6,441.4,2137.7,242.6,1359.9C115.1,867.3,100,733.4,100,113.3c0-620.1,15.1-754,142.6-1246.6C571-2421,1471.9-3566.1,2649.4-4201.3c760.5-408.3,1477.8-589.8,2344.2-589.8c805.9,0,1490.8,159.9,2182.1,505.6c512.1,259.3,879.3,525,1285.5,931.2c689.2,689.2,1145.1,1523.2,1339.5,2452.2c136.1,643.8,131.8,1421.6-10.8,2084.9c-237.7,1097.5-920.4,2160.5-1825.7,2841.1c-650.3,488.3-1346,790.8-2171.3,939.8C5553.2,5006.9,4645.8,5028.5,4399.5,4994z M5464.6,4389c2169.2-235.5,3828.5-2089.2,3828.5-4275.7c0-2372.3-1927.2-4299.5-4299.5-4299.5c-2015.8,0-3761.5,1402.2-4200.1,3374.8c-384.6,1732.7,350,3539,1834.3,4517.7c533.7,352.2,1244.5,611.4,1858.1,680.6C4732.2,4414.9,5218.3,4417.1,5464.6,4389z"/><path d="M4572.3,3751.6c-810.2-142.6-1521-704.3-1834.3-1449.7c-393.2-939.8-188-1994.2,527.2-2707.1c304.6-304.6,695.7-529.3,1117-641.7c192.3-51.8,248.5-58.3,611.4-58.3c365.1,0,419.2,6.5,613.6,58.3C7078.5-651.5,7849.9,938.6,7240.6,2321.4C6793.3,3345.5,5669.9,3946.1,4572.3,3751.6z M5389,3140.2c216-56.2,324.1-114.5,471-255c194.5-183.6,298.2-473.2,270.1-747.5c-17.3-168.5-75.6-293.8-194.5-421.3l-99.4-105.9l97.2-69.1c188-136.1,291.7-337,306.8-609.3c28.1-440.7-164.2-784.3-542.3-970.1c-246.3-123.2-434.3-157.7-780-144.8c-231.2,6.5-311.1,19.5-453.7,67C4250.4-42.3,4114.3,42,3989,182.4c-326.2,363-332.7,978.7-13,1276.9c54,51.9,116.7,103.7,138.3,114.5c34.6,19.4,28.1,32.4-51.9,116.7c-224.7,235.5-267.9,622.2-105.9,961.4c121,252.8,421.3,458,756.2,514.2C4874.8,3194.2,5233.4,3179.1,5389,3140.2z"/><path d="M4864,2563.4c-127.5-25.9-196.6-58.3-259.3-129.6c-51.9-60.5-64.8-95.1-64.8-175c0-84.3,10.8-108,82.1-179.3c67-67,103.7-84.3,224.7-105.9c164.2-28.1,356.5-6.5,468.8,49.7c138.3,73.5,177.1,280.9,73.4,404c-32.4,36.7-88.6,82.1-127.5,97.2C5185.9,2556.9,4948.2,2578.5,4864,2563.4z"/><path d="M4805.6,1172c-196.6-41-317.6-153.4-343.5-313.3c-32.4-222.5,151.2-399.7,453.7-432.1c157.7-17.3,369.5,28.1,471,101.5c95.1,67,155.6,213.9,136.1,334.9c-17.3,121-134,244.1-265.7,283C5134.1,1182.8,4915.8,1195.7,4805.6,1172z"/></g></g>
</svg>